<?xml version="1.0" standalone="no"?>
<!DOCTYPE svg PUBLIC "-//W3C//DTD SVG 20010904//EN"
 "http://www.w3.org/TR/2001/REC-SVG-20010904/DTD/svg10.dtd">
<svg version="1.0" xmlns="http://www.w3.org/2000/svg"
 width="300.000000pt" height="56.000000pt" viewBox="0 0 300.000000 56.000000"
 preserveAspectRatio="xMidYMid meet">

<g transform="translate(0.000000,56.000000) scale(0.100000,-0.100000)"
fill="#000000" stroke="none">
<path d="M172 520 c-39 -20 -81 -53 -117 -92 l-57 -62 4 -85 c7 -136 67 -238
153 -260 56 -14 169 -14 220 0 83 23 145 125 160 261 7 63 6 68 -24 111 -38
55 -92 99 -162 132 -70 32 -103 31 -177 -5z m139 -100 c1 -17 3 -19 6 -7 2 9
11 17 19 17 9 0 12 -5 8 -12 -9 -14 -35 -128 -34 -148 0 -8 0 -23 1 -33 0 -31
24 -13 27 21 2 18 7 32 12 32 4 0 6 -10 4 -22 -4 -22 -4 -22 6 1 7 16 15 21
28 16 9 -3 29 -9 45 -12 23 -5 27 -2 27 18 l1 24 13 -24 c16 -29 11 -51 -13
-51 -14 0 -14 -2 -1 -11 11 -7 12 -12 3 -15 -7 -3 -9 -12 -6 -20 3 -9 -2 -14
-18 -15 -18 -1 -19 -3 -6 -6 23 -6 12 -23 -16 -23 -16 0 -18 -3 -9 -9 20 -12
-11 -22 -48 -14 -26 5 -29 8 -18 21 9 11 2 10 -24 -5 -41 -24 -59 -23 -110 3
-27 14 -31 14 -20 2 10 -13 8 -16 -18 -21 -37 -8 -68 2 -48 14 9 6 7 9 -9 9
-28 0 -39 17 -16 23 14 4 13 5 -4 6 -25 1 -31 16 -10 24 7 3 5 6 -5 6 -21 1
-24 17 -5 24 7 3 5 6 -5 6 -20 1 -24 36 -8 61 8 12 10 10 10 -9 0 -20 4 -23
28 -18 15 3 35 9 44 12 13 5 21 0 28 -16 10 -23 10 -23 6 -1 -2 12 0 22 5 22
5 0 9 -13 9 -29 0 -32 18 -51 30 -32 4 7 5 22 4 34 -11 62 -30 143 -37 155 -5
8 -3 12 7 12 8 0 17 -8 19 -17 3 -12 5 -10 6 7 2 53 89 53 92 0z m-51 -327 c1
-17 1 -17 11 0 11 19 45 22 86 6 22 -8 24 -12 13 -19 -12 -8 -11 -10 4 -10 11
0 17 -3 13 -6 -7 -8 -48 6 -43 14 2 4 -11 7 -29 8 -19 0 -32 -3 -29 -8 3 -4
-7 -8 -21 -8 -14 0 -24 3 -22 8 3 4 -10 7 -28 7 -18 0 -31 -3 -29 -7 5 -8 -36
-22 -43 -14 -4 3 2 6 13 6 16 0 16 2 4 10 -12 7 -10 11 10 19 43 17 90 13 90
-6z"/>
<path d="M242 400 c0 -19 2 -27 5 -17 2 9 2 25 0 35 -3 9 -5 1 -5 -18z"/>
<path d="M282 395 c0 -16 2 -22 5 -12 2 9 2 23 0 30 -3 6 -5 -1 -5 -18z"/>
<path d="M221 364 c0 -11 3 -14 6 -6 3 7 2 16 -1 19 -3 4 -6 -2 -5 -13z"/>
<path d="M301 364 c0 -11 3 -14 6 -6 3 7 2 16 -1 19 -3 4 -6 -2 -5 -13z"/>
<path d="M256 355 c-3 -9 -2 -13 3 -10 15 9 23 -13 12 -32 -8 -14 -11 -15 -11
-3 -1 35 -23 -27 -26 -74 -4 -58 14 -83 47 -65 19 10 26 53 11 63 -5 3 -6 -8
-4 -25 4 -24 1 -29 -17 -29 -25 0 -36 22 -26 47 7 17 8 17 14 -1 7 -19 8 -19
14 3 3 13 3 29 0 37 -4 12 -8 11 -18 -3 -12 -16 -13 -15 -8 8 5 27 33 36 33
12 0 -8 5 -11 10 -8 8 5 7 11 0 20 -7 8 -9 19 -5 25 3 5 0 19 -8 30 -13 18
-15 19 -21 5z"/>
<path d="M161 214 c0 -11 3 -14 6 -6 3 7 2 16 -1 19 -3 4 -6 -2 -5 -13z"/>
<path d="M251 144 c0 -11 3 -14 6 -6 3 7 2 16 -1 19 -3 4 -6 -2 -5 -13z"/>
<path d="M271 144 c0 -11 3 -14 6 -6 3 7 2 16 -1 19 -3 4 -6 -2 -5 -13z"/>
<path d="M1962 398 l-82 -83 0 62 c0 83 -34 116 -84 80 -15 -11 -19 -35 -23
-175 -5 -140 -4 -164 11 -187 11 -17 26 -25 44 -25 36 0 52 17 52 55 0 20 9
40 23 53 l23 22 64 -65 c68 -68 95 -79 123 -47 29 31 19 54 -50 124 l-67 68
62 63 c63 63 77 98 50 125 -29 29 -62 13 -146 -70z"/>
<path d="M2743 473 c9 -2 23 -2 30 0 6 3 -1 5 -18 5 -16 0 -22 -2 -12 -5z"/>
<path d="M647 452 c-26 -28 -24 -254 2 -302 31 -58 62 -74 150 -78 85 -4 104
5 104 55 0 36 -28 53 -88 53 -28 0 -56 5 -63 12 -8 8 -12 51 -12 128 0 101 -3
119 -18 133 -24 22 -55 21 -75 -1z"/>
<path d="M947 452 c-14 -15 -17 -41 -17 -138 0 -105 3 -125 23 -164 30 -59 72
-80 159 -80 60 0 69 3 83 24 11 17 13 30 6 48 -12 31 -29 38 -90 38 -26 0 -52
5 -59 12 -8 8 -12 51 -12 128 0 101 -3 119 -18 133 -24 22 -55 21 -75 -1z"/>
<path d="M1246 448 c-13 -18 -16 -53 -16 -176 0 -149 1 -154 25 -177 22 -23
32 -25 116 -25 106 0 148 15 179 65 17 27 20 50 20 136 0 168 -32 199 -209
199 -92 0 -101 -2 -115 -22z m201 -100 c16 -20 24 -113 13 -142 -8 -22 -15
-26 -53 -26 -24 0 -48 5 -55 12 -17 17 -16 155 1 161 24 10 85 7 94 -5z"/>
<path d="M1637 452 c-24 -27 -25 -342 -1 -366 21 -21 57 -20 77 2 24 27 25
326 1 360 -18 27 -55 29 -77 4z"/>
<path d="M2168 459 c-22 -13 -24 -62 -2 -83 9 -9 32 -16 55 -16 l39 0 0 -129
c0 -140 7 -161 55 -161 44 0 55 32 55 167 l0 123 39 0 c61 0 93 57 53 93 -15
14 -41 17 -148 17 -71 0 -137 -5 -146 -11z"/>
<path d="M2524 456 c-17 -13 -19 -30 -22 -176 -4 -182 4 -210 56 -210 49 0 52
11 52 195 0 154 -2 174 -18 188 -23 21 -42 21 -68 3z"/>
<path d="M2880 280 c0 -5 23 -10 50 -10 28 0 50 5 50 10 0 6 -22 10 -50 10
-27 0 -50 -4 -50 -10z"/>
<path d="M2829 252 c5 -9 19 -26 30 -36 21 -19 21 -19 21 11 0 23 -5 32 -22
37 -35 9 -39 7 -29 -12z"/>
<path d="M2905 80 c3 -5 15 -10 25 -10 10 0 22 5 25 10 4 6 -7 10 -25 10 -18
0 -29 -4 -25 -10z"/>
</g>
</svg>
